<svg width="283" height="120" viewBox="0 0 283 120" fill="none" xmlns="http://www.w3.org/2000/svg">
<path d="M98.2943 48.9314C91.5376 48.9314 86.0602 43.4546 86.0602 36.6985C86.0602 33.9956 87.0965 31.2846 88.5812 29.26L106.932 4.79429C109.168 1.87935 112.687 0 116.645 0C123.402 0 128.879 5.47683 128.879 12.2328C128.879 14.9358 128.003 17.434 126.518 19.4586L108.167 43.9243C105.931 46.8392 102.252 48.9314 98.2943 48.9314Z" fill="#0057FF"/>
<path d="M134.996 40.7762C130.492 40.7762 126.84 37.1249 126.84 32.6209C126.84 30.8189 127.531 29.0116 128.521 27.6619L140.755 11.3514C142.246 9.40813 144.592 8.15523 147.23 8.15523C151.735 8.15523 155.387 11.8065 155.387 16.3105C155.387 18.1124 154.802 19.7779 153.812 21.1277L141.578 37.4381C140.087 39.3814 137.635 40.7762 134.996 40.7762Z" fill="#FF8A00"/>
<path d="M165.582 48.9314C158.825 48.9314 153.348 43.4546 153.348 36.6985C153.348 33.9956 154.384 31.2846 155.868 29.26L174.22 4.79429C176.456 1.87935 179.975 0 183.933 0C190.689 0 196.167 5.47683 196.167 12.2328C196.167 14.9358 195.29 17.434 193.805 19.4586L175.454 43.9243C173.218 46.8392 169.54 48.9314 165.582 48.9314Z" fill="#00E094"/>
<path fill-rule="evenodd" clip-rule="evenodd" d="M19.5745 119.123H0V69.1788H18.8995C33.5466 69.1788 43.7388 79.4376 43.7388 94.2857C43.7388 108.864 33.8166 119.123 19.5745 119.123ZM10.9347 79.3026H17.8195C26.8643 79.3026 32.1966 84.8369 32.1966 94.2857C32.1966 103.532 27.1343 108.999 18.4945 108.999H10.9347V79.3026Z" fill="#1A1C1E"/>
<path fill-rule="evenodd" clip-rule="evenodd" d="M67.0758 120C56.8836 120 49.5938 112.576 49.5938 102.182C49.5938 91.6535 56.6811 84.297 66.8733 84.297C77.4706 84.297 84.0854 91.2486 84.0854 102.25V104.882L59.5835 105.017C60.191 109.471 62.6884 111.564 67.2783 111.564C71.1932 111.564 73.9606 110.146 74.7031 107.717H84.2204C83.0054 115.208 76.3231 120 67.0758 120ZM59.7185 98.6052C60.5285 94.5557 62.8234 92.7334 66.9408 92.7334C71.1257 92.7334 73.7581 95.0281 73.7581 98.6052H59.7185Z" fill="#1A1C1E"/>
<path d="M99.4618 119.123L86.2996 85.3768H97.5043L101.622 97.1878C103.309 102.115 104.659 106.367 104.929 107.919C105.334 105.962 106.819 101.575 108.507 97.1878L113.029 85.3768H123.829L109.722 119.123H99.4618Z" fill="#1A1C1E"/>
<path d="M162.564 119.123H125.913V108.864L148.187 79.3026H126.588V69.1788H161.889V78.9651L139.277 108.999H162.564V119.123Z" fill="#1A1C1E"/>
<path fill-rule="evenodd" clip-rule="evenodd" d="M184.831 120C174.639 120 167.349 112.576 167.349 102.182C167.349 91.6535 174.436 84.297 184.629 84.297C195.226 84.297 201.841 91.2486 201.841 102.25V104.882L177.339 105.017C177.946 109.471 180.444 111.564 185.034 111.564C188.949 111.564 191.716 110.146 192.459 107.717H201.976C200.761 115.208 194.078 120 184.831 120ZM177.474 98.6052C178.284 94.5557 180.579 92.7334 184.696 92.7334C188.881 92.7334 191.514 95.0281 191.514 98.6052H177.474Z" fill="#1A1C1E"/>
<path fill-rule="evenodd" clip-rule="evenodd" d="M225.006 120C214.814 120 207.524 112.576 207.524 102.182C207.524 91.6535 214.611 84.297 224.803 84.297C235.401 84.297 242.015 91.2486 242.015 102.25V104.882L217.514 105.017C218.121 109.471 220.618 111.564 225.208 111.564C229.123 111.564 231.891 110.146 232.633 107.717H242.15C240.935 115.208 234.253 120 225.006 120ZM217.649 98.6052C218.459 94.5557 220.753 92.7334 224.871 92.7334C229.056 92.7334 231.688 95.0281 231.688 98.6052H217.649Z" fill="#1A1C1E"/>
<path d="M259.916 119.123H249.521V85.3768H259.308L259.983 88.8864C262.076 85.9842 265.923 84.297 270.31 84.297C278.343 84.297 283 89.4263 283 98.2677V119.123H272.605V100.765C272.605 96.5129 270.243 93.7458 266.665 93.7458C262.548 93.7458 259.916 96.4454 259.916 100.63V119.123Z" fill="#1A1C1E"/>
</svg>
